<svg width="201" height="30" viewBox="0 0 201 30" fill="none" xmlns="http://www.w3.org/2000/svg">
<path d="M0.844 25.562C1.60667 25.3367 2.29133 24.9293 2.898 24.34C3.50467 23.768 3.94667 23.0573 4.224 22.208C4.44933 21.5493 4.59667 20.7867 4.666 19.92C4.73533 19.036 4.77 17.684 4.77 15.864V4.32L2.274 3.982V2.682H9.918V3.982L7.552 4.32V14.85V16.072C7.552 17.4413 7.53467 18.542 7.5 19.374C7.46533 20.206 7.38733 20.9167 7.266 21.506C6.954 22.8927 6.26933 24.0367 5.212 24.938C4.15467 25.8393 2.93267 26.4113 1.546 26.654L0.844 25.562ZM12.0723 14.746C12.0723 13.186 12.393 11.834 13.0343 10.69C13.6757 9.546 14.5163 8.67933 15.5563 8.09C16.6137 7.48333 17.7403 7.18 18.9363 7.18C21.1203 7.18 22.7583 7.87333 23.8503 9.26C24.9597 10.6467 25.5143 12.4667 25.5143 14.72C25.5143 16.2973 25.1937 17.658 24.5523 18.802C23.911 19.946 23.0617 20.8127 22.0043 21.402C20.9643 21.9913 19.8463 22.286 18.6503 22.286C16.4663 22.286 14.8197 21.5927 13.7103 20.206C12.6183 18.8193 12.0723 16.9993 12.0723 14.746ZM18.8063 20.804C20.0023 20.804 20.921 20.31 21.5623 19.322C22.2037 18.334 22.5243 16.8693 22.5243 14.928C22.5243 13.004 22.2297 11.4787 21.6403 10.352C21.051 9.22533 20.1063 8.662 18.8063 8.662C17.6103 8.662 16.683 9.156 16.0243 10.144C15.383 11.132 15.0623 12.5967 15.0623 14.538C15.0623 16.462 15.3657 17.9873 15.9723 19.114C16.579 20.2407 17.5237 20.804 18.8063 20.804ZM30.9587 4.97C30.404 4.97 29.988 4.814 29.7107 4.502C29.4334 4.19 29.2947 3.79133 29.2947 3.306C29.2947 2.75133 29.4594 2.292 29.7887 1.928C30.1354 1.564 30.6034 1.382 31.1927 1.382C31.782 1.382 32.2154 1.538 32.4927 1.85C32.77 2.162 32.9087 2.56067 32.9087 3.046C32.9087 3.63533 32.7354 4.10333 32.3887 4.45C32.0594 4.79667 31.5914 4.97 30.9847 4.97H30.9587ZM29.9187 9.572L27.9427 9.104V7.726L31.9727 7.232H32.0247L32.6227 7.7V20.518L34.7027 20.726V22H27.8127V20.726L29.9187 20.492V9.572ZM38.1089 9.572L36.2369 9.104V7.7L39.9549 7.232H40.0329L40.5789 7.7V8.792L40.5529 9.416C41.1769 8.86133 42.0002 8.35867 43.0229 7.908C44.0456 7.45733 45.0249 7.232 45.9609 7.232C47.0529 7.232 47.8936 7.44 48.4829 7.856C49.0896 8.272 49.5142 8.91333 49.7569 9.78C49.9996 10.6293 50.1209 11.782 50.1209 13.238V20.518L51.9409 20.7V22H45.7789V20.726L47.3909 20.518V13.212C47.3909 12.1893 47.3216 11.392 47.1829 10.82C47.0442 10.2307 46.7842 9.79733 46.4029 9.52C46.0216 9.22533 45.4669 9.078 44.7389 9.078C44.1149 9.078 43.4476 9.234 42.7369 9.546C42.0262 9.858 41.3936 10.222 40.8389 10.638V20.492L42.6069 20.726V22H36.4709V20.726L38.1089 20.492V9.572ZM59.9845 18.1C59.9845 16.4707 60.7991 15.2747 62.4285 14.512C64.0578 13.732 66.1205 13.316 68.6165 13.264V12.536C68.6165 11.7213 68.5298 11.08 68.3565 10.612C68.1831 10.144 67.8798 9.806 67.4465 9.598C67.0305 9.37267 66.4325 9.26 65.6525 9.26C64.7685 9.26 63.9711 9.39 63.2605 9.65C62.5671 9.89267 61.8738 10.196 61.1805 10.56L60.5305 9.208C60.7558 9.01733 61.1718 8.766 61.7785 8.454C62.3851 8.142 63.0871 7.86467 63.8845 7.622C64.6818 7.37933 65.4791 7.258 66.2765 7.258C67.5071 7.258 68.4778 7.43133 69.1885 7.778C69.9165 8.10733 70.4365 8.64467 70.7485 9.39C71.0605 10.1353 71.2165 11.132 71.2165 12.38V20.726H72.7505V21.87C72.4038 21.9567 71.9618 22.0433 71.4245 22.13C70.9045 22.2167 70.4451 22.26 70.0465 22.26C69.5611 22.26 69.2318 22.182 69.0585 22.026C68.8851 21.8873 68.7985 21.5667 68.7985 21.064V20.206C68.2785 20.726 67.6371 21.2027 66.8745 21.636C66.1291 22.0693 65.2798 22.286 64.3265 22.286C63.0785 22.286 62.0385 21.9307 61.2065 21.22C60.3918 20.492 59.9845 19.452 59.9845 18.1ZM65.4445 20.518C65.8951 20.518 66.4151 20.3793 67.0045 20.102C67.5938 19.8247 68.1311 19.4953 68.6165 19.114V14.642C66.7271 14.642 65.2971 14.9367 64.3265 15.526C63.3731 16.098 62.8965 16.852 62.8965 17.788C62.8965 18.724 63.1218 19.4173 63.5725 19.868C64.0405 20.3013 64.6645 20.518 65.4445 20.518ZM82.9646 4.294L80.8586 3.982V2.682H88.3206V3.982L85.7466 4.294V20.466L92.4546 20.232L93.9886 15.864L95.5746 16.098L94.6646 22H80.8066V20.726L82.9646 20.466V4.294ZM97.2071 14.746C97.2071 13.186 97.5278 11.834 98.1691 10.69C98.8104 9.546 99.6511 8.67933 100.691 8.09C101.748 7.48333 102.875 7.18 104.071 7.18C106.255 7.18 107.893 7.87333 108.985 9.26C110.094 10.6467 110.649 12.4667 110.649 14.72C110.649 16.2973 110.328 17.658 109.687 18.802C109.046 19.946 108.196 20.8127 107.139 21.402C106.099 21.9913 104.981 22.286 103.785 22.286C101.601 22.286 99.9544 21.5927 98.8451 20.206C97.7531 18.8193 97.2071 16.9993 97.2071 14.746ZM103.941 20.804C105.137 20.804 106.056 20.31 106.697 19.322C107.338 18.334 107.659 16.8693 107.659 14.928C107.659 13.004 107.364 11.4787 106.775 10.352C106.186 9.22533 105.241 8.662 103.941 8.662C102.745 8.662 101.818 9.156 101.159 10.144C100.518 11.132 100.197 12.5967 100.197 14.538C100.197 16.462 100.5 17.9873 101.107 19.114C101.714 20.2407 102.658 20.804 103.941 20.804ZM112.713 14.876C112.713 13.4373 112.991 12.1373 113.545 10.976C114.117 9.81467 114.949 8.896 116.041 8.22C117.151 7.52667 118.477 7.18 120.019 7.18C120.765 7.18 121.406 7.24933 121.943 7.388C122.481 7.52667 123.122 7.71733 123.867 7.96L123.763 11.964H122.073L121.501 9.312C121.397 8.82667 120.739 8.584 119.525 8.584C118.312 8.584 117.35 9.078 116.639 10.066C115.946 11.0367 115.599 12.4233 115.599 14.226C115.599 16.2713 115.989 17.8313 116.769 18.906C117.567 19.9633 118.598 20.492 119.863 20.492C120.591 20.492 121.276 20.3793 121.917 20.154C122.576 19.9287 123.139 19.66 123.607 19.348L124.101 20.388C123.633 20.8733 122.94 21.3153 122.021 21.714C121.12 22.0953 120.201 22.286 119.265 22.286C117.844 22.286 116.639 21.9653 115.651 21.324C114.681 20.6827 113.944 19.8073 113.441 18.698C112.956 17.5713 112.713 16.2973 112.713 14.876ZM126.356 18.1C126.356 16.4707 127.17 15.2747 128.8 14.512C130.429 13.732 132.492 13.316 134.988 13.264V12.536C134.988 11.7213 134.901 11.08 134.728 10.612C134.554 10.144 134.251 9.806 133.818 9.598C133.402 9.37267 132.804 9.26 132.024 9.26C131.14 9.26 130.342 9.39 129.632 9.65C128.938 9.89267 128.245 10.196 127.552 10.56L126.902 9.208C127.127 9.01733 127.543 8.766 128.15 8.454C128.756 8.142 129.458 7.86467 130.256 7.622C131.053 7.37933 131.85 7.258 132.648 7.258C133.878 7.258 134.849 7.43133 135.56 7.778C136.288 8.10733 136.808 8.64467 137.12 9.39C137.432 10.1353 137.588 11.132 137.588 12.38V20.726H139.122V21.87C138.775 21.9567 138.333 22.0433 137.796 22.13C137.276 22.2167 136.816 22.26 136.418 22.26C135.932 22.26 135.603 22.182 135.43 22.026C135.256 21.8873 135.17 21.5667 135.17 21.064V20.206C134.65 20.726 134.008 21.2027 133.246 21.636C132.5 22.0693 131.651 22.286 130.698 22.286C129.45 22.286 128.41 21.9307 127.578 21.22C126.763 20.492 126.356 19.452 126.356 18.1ZM131.816 20.518C132.266 20.518 132.786 20.3793 133.376 20.102C133.965 19.8247 134.502 19.4953 134.988 19.114V14.642C133.098 14.642 131.668 14.9367 130.698 15.526C129.744 16.098 129.268 16.852 129.268 17.788C129.268 18.724 129.493 19.4173 129.944 19.868C130.412 20.3013 131.036 20.518 131.816 20.518ZM142.828 2.604L140.722 2.318V1.2L144.908 0.705998H144.96L145.532 1.096V20.518L147.742 20.726V22H140.722V20.726L142.828 20.492V2.604ZM163.662 22.286C161.894 22.286 160.395 21.8787 159.164 21.064C157.951 20.2493 157.032 19.1053 156.408 17.632C155.784 16.1413 155.472 14.4167 155.472 12.458C155.472 10.4647 155.845 8.714 156.59 7.206C157.353 5.698 158.393 4.53667 159.71 3.722C161.027 2.89 162.509 2.474 164.156 2.474C166.86 2.474 168.923 3.332 170.344 5.048C171.783 6.74667 172.502 9.104 172.502 12.12C172.502 14.148 172.112 15.9333 171.332 17.476C170.569 19.0013 169.512 20.1887 168.16 21.038C166.825 21.87 165.326 22.286 163.662 22.286ZM164 3.826C162.319 3.826 160.993 4.56267 160.022 6.036C159.051 7.492 158.566 9.63267 158.566 12.458C158.566 15.058 159.034 17.1207 159.97 18.646C160.923 20.154 162.249 20.908 163.948 20.908C165.612 20.908 166.929 20.154 167.9 18.646C168.888 17.138 169.382 14.9713 169.382 12.146C169.382 9.52867 168.914 7.492 167.978 6.036C167.042 4.56267 165.716 3.826 164 3.826ZM174.574 20.726L176.524 20.57V9.572L174.652 9.104V7.7L178.24 7.232H178.292L178.864 7.7V8.168L178.786 10.196H178.864C179.037 9.90133 179.349 9.52 179.8 9.052C180.25 8.584 180.831 8.15933 181.542 7.778C182.252 7.37933 183.024 7.18 183.856 7.18C184.202 7.18 184.488 7.22333 184.714 7.31V10.222C184.592 10.1353 184.393 10.0573 184.116 9.988C183.856 9.90133 183.561 9.858 183.232 9.858C181.793 9.858 180.458 10.3 179.228 11.184V20.544L182.53 20.752V22H174.574V20.726ZM192.644 29.02C190.425 29.02 188.813 28.6647 187.808 27.954C186.82 27.2607 186.326 26.2987 186.326 25.068C186.326 24.3053 186.56 23.6033 187.028 22.962C187.513 22.3207 188.085 21.8353 188.744 21.506C187.946 21.0553 187.548 20.3273 187.548 19.322C187.548 18.698 187.73 18.1087 188.094 17.554C188.458 16.9993 188.934 16.5747 189.524 16.28C188.657 15.8987 187.99 15.3527 187.522 14.642C187.071 13.9313 186.846 13.0907 186.846 12.12C186.846 11.1147 187.123 10.2393 187.678 9.494C188.25 8.74867 188.995 8.17667 189.914 7.778C190.85 7.37933 191.838 7.18 192.878 7.18C194.628 7.18 195.998 7.544 196.986 8.272C197.246 8.012 197.644 7.76067 198.182 7.518C198.719 7.27533 199.291 7.154 199.898 7.154H200.782V9.442H197.922C198.338 10.0833 198.546 10.8287 198.546 11.678C198.546 12.7007 198.286 13.6107 197.766 14.408C197.263 15.188 196.552 15.7947 195.634 16.228C194.732 16.6613 193.71 16.878 192.566 16.878C191.82 16.878 191.153 16.8 190.564 16.644C190.321 16.8867 190.122 17.1553 189.966 17.45C189.81 17.7447 189.732 18.0307 189.732 18.308C189.732 18.932 189.94 19.3653 190.356 19.608C190.772 19.8333 191.517 19.946 192.592 19.946H195.53C197.211 19.946 198.459 20.2667 199.274 20.908C200.088 21.5493 200.496 22.4593 200.496 23.638C200.496 24.626 200.14 25.5273 199.43 26.342C198.719 27.174 197.757 27.824 196.544 28.292C195.348 28.7773 194.048 29.02 192.644 29.02ZM192.826 15.448C194.802 15.448 195.79 14.278 195.79 11.938C195.79 10.7767 195.53 9.92733 195.01 9.39C194.507 8.83533 193.744 8.558 192.722 8.558C191.768 8.558 191.014 8.82667 190.46 9.364C189.905 9.884 189.628 10.7247 189.628 11.886C189.628 12.978 189.888 13.8447 190.408 14.486C190.945 15.1273 191.751 15.448 192.826 15.448ZM192.878 27.512C193.727 27.512 194.524 27.382 195.27 27.122C196.032 26.8793 196.648 26.5067 197.116 26.004C197.584 25.5187 197.818 24.9467 197.818 24.288C197.818 23.508 197.61 22.936 197.194 22.572C196.778 22.2253 195.972 22.052 194.776 22.052H191.708C191.014 22.052 190.468 22.0087 190.07 21.922C189.359 22.702 189.004 23.5773 189.004 24.548C189.004 25.5187 189.298 26.2553 189.888 26.758C190.477 27.2607 191.474 27.512 192.878 27.512Z" fill="black"/>
</svg>
